<svg width="45" height="43" viewBox="0 0 45 43" fill="none" xmlns="http://www.w3.org/2000/svg">
<g clip-path="url(#clip0_308_525)">
<path d="M24.1978 12.0385V16.8375C24.1978 17.4739 24.4506 18.0843 24.9006 18.5343C25.3506 18.9843 25.9609 19.2371 26.5973 19.2371H27.797M27.797 19.2371C29.0698 19.2371 30.2905 18.7314 31.1905 17.8315C32.0905 16.9315 32.5961 15.7108 32.5961 14.438V7.23947C32.5961 6.60308 32.3433 5.99275 31.8933 5.54275C31.4433 5.09275 30.833 4.83995 30.1966 4.83995H26.5973C25.8379 4.83922 25.0896 4.6583 24.4137 4.31205C22.1228 3.11647 19.5831 2.4754 16.9992 2.44043C14.399 2.46788 11.8421 3.10917 9.53671 4.31205C8.87326 4.64543 8.14351 4.82582 7.40114 4.83995H3.80186C3.16547 4.83995 2.55514 5.09275 2.10515 5.54275C1.65515 5.99275 1.40234 6.60308 1.40234 7.23947V14.438C1.40234 15.7108 1.90796 16.9315 2.80795 17.8315C3.70794 18.7314 4.9286 19.2371 6.20138 19.2371M27.797 19.2371L27.0532 23.0043C26.5957 25.3346 25.3428 27.4336 23.509 28.9425C21.6751 30.4513 19.374 31.2762 16.9992 31.2762C14.6244 31.2762 12.3234 30.4513 10.4895 28.9425C8.65559 27.4336 7.40277 25.3346 6.94523 23.0043L6.20138 19.2371M6.20138 19.2371H7.40114C8.03753 19.2371 8.64786 18.9843 9.09786 18.5343C9.54785 18.0843 9.80066 17.4739 9.80066 16.8375V12.0385M15.7995 24.0361H18.199" stroke="black" stroke-width="2.39952" stroke-linecap="round" stroke-linejoin="round"/>
</g>
<path d="M39.5957 31.9521H33.5957V37.9521H31.5957V31.9521H25.5957V29.9521H31.5957V23.9521H33.5957V29.9521H39.5957V31.9521Z" fill="black"/>
<defs>
<clipPath id="clip0_308_525">
<rect width="33.5933" height="33.5933" fill="white" transform="translate(0.203125 0.0408936)"/>
</clipPath>
</defs>
</svg>
