<svg width="27" height="28" viewBox="0 0 27 28" fill="none" xmlns="http://www.w3.org/2000/svg">
<g clip-path="url(#clip0_473_1539)">
<path d="M7.94548 5.28376C8.07129 5.15795 8.14197 4.98732 8.14197 4.8094C8.14197 4.63148 8.07129 4.46084 7.94548 4.33504C7.81967 4.20923 7.64904 4.13855 7.47112 4.13855C7.2932 4.13855 7.12257 4.20923 6.99676 4.33504L4.79112 6.54202L3.92548 5.67504C3.86319 5.61274 3.78923 5.56333 3.70784 5.52962C3.62645 5.4959 3.53922 5.47855 3.45112 5.47855C3.36302 5.47855 3.27579 5.4959 3.1944 5.52962C3.11301 5.56333 3.03905 5.61274 2.97676 5.67504C2.91447 5.73733 2.86505 5.81128 2.83134 5.89267C2.79763 5.97407 2.78027 6.0613 2.78027 6.1494C2.78027 6.23749 2.79763 6.32473 2.83134 6.40612C2.86505 6.48751 2.91447 6.56146 2.97676 6.62376L4.31676 7.96376C4.379 8.02615 4.45293 8.07565 4.53433 8.10943C4.61573 8.14321 4.70299 8.16059 4.79112 8.16059C4.87925 8.16059 4.96651 8.14321 5.04791 8.10943C5.12931 8.07565 5.20324 8.02615 5.26548 7.96376L7.94548 5.28376ZM11.8261 5.4794C11.5596 5.4794 11.304 5.58528 11.1155 5.77375C10.927 5.96223 10.8211 6.21785 10.8211 6.4844C10.8211 6.75094 10.927 7.00656 11.1155 7.19504C11.304 7.38351 11.5596 7.4894 11.8261 7.4894H23.2161C23.4827 7.4894 23.7383 7.38351 23.9268 7.19504C24.1152 7.00656 24.2211 6.75094 24.2211 6.4844C24.2211 6.21785 24.1152 5.96223 23.9268 5.77375C23.7383 5.58528 23.4827 5.4794 23.2161 5.4794H11.8261ZM11.8261 12.1794C11.5596 12.1794 11.304 12.2853 11.1155 12.4738C10.927 12.6622 10.8211 12.9179 10.8211 13.1844C10.8211 13.4509 10.927 13.7066 11.1155 13.895C11.304 14.0835 11.5596 14.1894 11.8261 14.1894H23.2161C23.4827 14.1894 23.7383 14.0835 23.9268 13.895C24.1152 13.7066 24.2211 13.4509 24.2211 13.1844C24.2211 12.9179 24.1152 12.6622 23.9268 12.4738C23.7383 12.2853 23.4827 12.1794 23.2161 12.1794H11.8261ZM13.5306 20.8894C13.5926 20.2004 13.7519 19.5237 14.0036 18.8794H11.8261C11.5596 18.8794 11.304 18.9853 11.1155 19.1738C10.927 19.3622 10.8211 19.6179 10.8211 19.8844C10.8211 20.1509 10.927 20.4066 11.1155 20.595C11.304 20.7835 11.5596 20.8894 11.8261 20.8894H13.5306ZM7.94548 12.6538C8.00777 12.5915 8.05719 12.5175 8.0909 12.4361C8.12462 12.3547 8.14197 12.2675 8.14197 12.1794C8.14197 12.0913 8.12462 12.0041 8.0909 11.9227C8.05719 11.8413 8.00777 11.7673 7.94548 11.705C7.88319 11.6427 7.80923 11.5933 7.72784 11.5596C7.64645 11.5259 7.55922 11.5086 7.47112 11.5086C7.38302 11.5086 7.29579 11.5259 7.2144 11.5596C7.13301 11.5933 7.05905 11.6427 6.99676 11.705L4.79112 13.912L3.92548 13.045C3.79967 12.9192 3.62904 12.8486 3.45112 12.8486C3.2732 12.8486 3.10257 12.9192 2.97676 13.045C2.85095 13.1708 2.78027 13.3415 2.78027 13.5194C2.78027 13.6973 2.85095 13.8679 2.97676 13.9938L4.31676 15.3338C4.379 15.3962 4.45293 15.4457 4.53433 15.4794C4.61573 15.5132 4.70299 15.5306 4.79112 15.5306C4.87925 15.5306 4.96651 15.5132 5.04791 15.4794C5.12931 15.4457 5.20324 15.3962 5.26548 15.3338L7.94548 12.6538ZM7.94548 18.405C8.00788 18.4673 8.05738 18.5412 8.09116 18.6226C8.12493 18.704 8.14232 18.7913 8.14232 18.8794C8.14232 18.9675 8.12493 19.0548 8.09116 19.1362C8.05738 19.2176 8.00788 19.2915 7.94548 19.3538L5.26548 22.0338C5.20324 22.0962 5.12931 22.1457 5.04791 22.1794C4.96651 22.2132 4.87925 22.2306 4.79112 22.2306C4.70299 22.2306 4.61573 22.2132 4.53433 22.1794C4.45293 22.1457 4.379 22.0962 4.31676 22.0338L2.97676 20.6938C2.85095 20.5679 2.78027 20.3973 2.78027 20.2194C2.78027 20.0415 2.85095 19.8708 2.97676 19.745C3.10257 19.6192 3.2732 19.5486 3.45112 19.5486C3.62904 19.5486 3.79967 19.6192 3.92548 19.745L4.79112 20.612L6.99676 18.405C7.059 18.3426 7.13293 18.2931 7.21433 18.2594C7.29573 18.2256 7.38299 18.2082 7.47112 18.2082C7.55925 18.2082 7.64651 18.2256 7.72791 18.2594C7.80931 18.2931 7.88324 18.3426 7.94548 18.405ZM26.9011 21.5594C26.9011 23.1587 26.2658 24.6924 25.135 25.8233C24.0041 26.9541 22.4704 27.5894 20.8711 27.5894C19.2719 27.5894 17.7381 26.9541 16.6073 25.8233C15.4764 24.6924 14.8411 23.1587 14.8411 21.5594C14.8411 19.9601 15.4764 18.4264 16.6073 17.2955C17.7381 16.1647 19.2719 15.5294 20.8711 15.5294C22.4704 15.5294 24.0041 16.1647 25.135 17.2955C26.2658 18.4264 26.9011 19.9601 26.9011 21.5594ZM21.5411 18.8794C21.5411 18.7017 21.4705 18.5313 21.3449 18.4056C21.2192 18.28 21.0488 18.2094 20.8711 18.2094C20.6934 18.2094 20.523 18.28 20.3974 18.4056C20.2717 18.5313 20.2011 18.7017 20.2011 18.8794V20.8894H18.1911C18.0134 20.8894 17.843 20.96 17.7174 21.0856C17.5917 21.2113 17.5211 21.3817 17.5211 21.5594C17.5211 21.7371 17.5917 21.9075 17.7174 22.0332C17.843 22.1588 18.0134 22.2294 18.1911 22.2294H20.2011V24.2394C20.2011 24.4171 20.2717 24.5875 20.3974 24.7132C20.523 24.8388 20.6934 24.9094 20.8711 24.9094C21.0488 24.9094 21.2192 24.8388 21.3449 24.7132C21.4705 24.5875 21.5411 24.4171 21.5411 24.2394V22.2294H23.5511C23.7288 22.2294 23.8992 22.1588 24.0249 22.0332C24.1505 21.9075 24.2211 21.7371 24.2211 21.5594C24.2211 21.3817 24.1505 21.2113 24.0249 21.0856C23.8992 20.96 23.7288 20.8894 23.5511 20.8894H21.5411V18.8794Z" fill="black"/>
</g>
<defs>
<clipPath id="clip0_473_1539">
<rect width="26.8" height="26.8" fill="white" transform="translate(0.0996094 0.789917)"/>
</clipPath>
</defs>
</svg>
