<svg width="51" height="51" viewBox="0 0 51 51" fill="none" xmlns="http://www.w3.org/2000/svg">
<g id="ei:arrow-left">
<path id="Vector" d="M25.7812 42.5203C16.3813 42.5203 8.78125 34.9203 8.78125 25.5203C8.78125 16.1203 16.3813 8.52026 25.7812 8.52026C35.1812 8.52026 42.7812 16.1203 42.7812 25.5203C42.7812 34.9203 35.1812 42.5203 25.7812 42.5203ZM25.7812 10.5203C17.4812 10.5203 10.7812 17.2203 10.7812 25.5203C10.7812 33.8203 17.4812 40.5203 25.7812 40.5203C34.0812 40.5203 40.7812 33.8203 40.7812 25.5203C40.7812 17.2203 34.0812 10.5203 25.7812 10.5203Z" fill="black"/>
<path id="Vector_2" d="M26.0809 35.2203L16.3809 25.5203L26.0809 15.8203L27.4809 17.2203L19.1809 25.5203L27.4809 33.8203L26.0809 35.2203Z" fill="black"/>
<path id="Vector_3" d="M17.7812 24.5203H34.7812V26.5203H17.7812V24.5203Z" fill="black"/>
</g>
</svg>
