<svg width="42" height="42" viewBox="0 0 42 42" fill="none" xmlns="http://www.w3.org/2000/svg">
<g id="ep:arrow-up-bold">
<path id="Vector" d="M16.0609 8.9979C15.7057 9.36262 15.5098 9.85349 15.5165 10.3626C15.5231 10.8716 15.7317 11.3572 16.0963 11.7126L25.7238 21.0919L16.3441 30.719C15.9991 31.0856 15.8119 31.5731 15.8229 32.0764C15.8338 32.5797 16.042 33.0586 16.4026 33.4099C16.7632 33.7613 17.2474 33.9569 17.7508 33.9547C18.2543 33.9525 18.7367 33.7527 19.0943 33.3982L29.8136 22.3961C30.1689 22.0314 30.3647 21.5405 30.3581 21.0314C30.3514 20.5224 30.1428 20.0368 29.7782 19.6814L18.7756 8.96251C18.4109 8.60729 17.92 8.41146 17.4109 8.4181C16.9018 8.42474 16.4162 8.63329 16.0609 8.9979Z" fill="black"/>
</g>
</svg>
