<svg width="24" height="25" viewBox="0 0 24 25" fill="none" xmlns="http://www.w3.org/2000/svg">
<path id="Vector" d="M22.8334 21.346C23.1445 21.657 23.3192 22.0789 23.3192 22.5188C23.3192 22.9587 23.1445 23.3806 22.8334 23.6916C22.5224 24.0027 22.1005 24.1774 21.6606 24.1774C21.2208 24.1774 20.7989 24.0027 20.4879 23.6916L11.7279 14.9285L2.96513 23.6889C2.65409 23.9999 2.23223 24.1747 1.79235 24.1747C1.35247 24.1747 0.930612 23.9999 0.619571 23.6889C0.30853 23.3778 0.133789 22.9559 0.133789 22.516C0.133789 22.0761 0.30853 21.6543 0.619571 21.3432L9.38232 12.5829L0.62233 3.81978C0.311289 3.50872 0.136549 3.08684 0.136549 2.64695C0.136549 2.20705 0.311289 1.78517 0.62233 1.47412C0.933371 1.16307 1.35523 0.988318 1.79511 0.988318C2.23499 0.988318 2.65685 1.16307 2.96789 1.47412L11.7279 10.2372L20.4906 1.47274C20.8017 1.16169 21.2235 0.986938 21.6634 0.986938C22.1033 0.986938 22.5251 1.16169 22.8362 1.47274C23.1472 1.78379 23.322 2.20567 23.322 2.64557C23.322 3.08546 23.1472 3.50734 22.8362 3.8184L14.0734 12.5829L22.8334 21.346Z" fill="black"/>
</svg>
