<svg width="44" height="40" viewBox="0 0 44 40" fill="none" xmlns="http://www.w3.org/2000/svg">
<path d="M24.063 10.9296V15.7287C24.063 16.365 24.3158 16.9754 24.7658 17.4254C25.2158 17.8754 25.8261 18.1282 26.4625 18.1282H27.6623M27.6623 18.1282C28.9351 18.1282 30.1557 17.6226 31.0557 16.7226C31.9557 15.8226 32.4613 14.6019 32.4613 13.3291V6.13058C32.4613 5.49419 32.2085 4.88386 31.7585 4.43386C31.3085 3.98387 30.6982 3.73106 30.0618 3.73106H26.4625C25.7032 3.73033 24.9548 3.54941 24.279 3.20317C21.988 2.00758 19.4484 1.36651 16.8644 1.33154C14.2643 1.35899 11.7073 2.00028 9.40195 3.20317C8.73849 3.53654 8.00874 3.71693 7.26637 3.73106H3.6671C3.0307 3.73106 2.42038 3.98387 1.97038 4.43386C1.52038 4.88386 1.26758 5.49419 1.26758 6.13058V13.3291C1.26758 14.6019 1.77319 15.8226 2.67318 16.7226C3.57318 17.6226 4.79383 18.1282 6.06662 18.1282M27.6623 18.1282L26.9184 21.8954C26.4609 24.2257 25.2081 26.3247 23.3742 27.8336C21.5403 29.3424 19.2393 30.1673 16.8644 30.1673C14.4896 30.1673 12.1886 29.3424 10.3547 27.8336C8.52082 26.3247 7.26801 24.2257 6.81047 21.8954L6.06662 18.1282M6.06662 18.1282H7.26637C7.90277 18.1282 8.51309 17.8754 8.96309 17.4254C9.41309 16.9754 9.66589 16.365 9.66589 15.7287V10.9296M15.6647 22.9272H18.0642" stroke="black" stroke-width="2.39952" stroke-linecap="round" stroke-linejoin="round"/>
<path d="M40.1086 35.4263C40.2567 35.5744 40.3399 35.7753 40.3399 35.9848C40.3399 36.1943 40.2567 36.3952 40.1086 36.5433C39.9604 36.6914 39.7595 36.7746 39.5501 36.7746C39.3406 36.7746 39.1397 36.6914 38.9916 36.5433L34.82 32.3704L30.6471 36.542C30.499 36.6901 30.2981 36.7733 30.0886 36.7733C29.8792 36.7733 29.6783 36.6901 29.5302 36.542C29.382 36.3938 29.2988 36.1929 29.2988 35.9835C29.2988 35.774 29.382 35.5731 29.5302 35.425L33.703 31.2534L29.5315 27.0805C29.3834 26.9324 29.3001 26.7315 29.3001 26.522C29.3001 26.3126 29.3834 26.1117 29.5315 25.9636C29.6796 25.8154 29.8805 25.7322 30.09 25.7322C30.2994 25.7322 30.5003 25.8154 30.6484 25.9636L34.82 30.1364L38.9929 25.9629C39.141 25.8148 39.3419 25.7316 39.5514 25.7316C39.7609 25.7316 39.9618 25.8148 40.1099 25.9629C40.258 26.111 40.3412 26.3119 40.3412 26.5214C40.3412 26.7309 40.258 26.9318 40.1099 27.0799L35.937 31.2534L40.1086 35.4263Z" fill="black"/>
</svg>
