<svg width="34" height="34" viewBox="0 0 34 34" fill="none" xmlns="http://www.w3.org/2000/svg">
<path d="M28.5498 26.5663L21.7103 19.7257C22.8125 18.211 23.4054 16.3855 23.4036 14.5123C23.4036 9.60919 19.4145 5.62003 14.5114 5.62003C9.6083 5.62003 5.61914 9.60919 5.61914 14.5123C5.61914 19.4154 9.6083 23.4045 14.5114 23.4045C16.3847 23.4063 18.2101 22.8134 19.7248 21.7112L26.5654 28.5507L28.5498 26.5663ZM14.5114 20.5961C13.308 20.5962 12.1315 20.2394 11.1309 19.5709C10.1303 18.9024 9.35032 17.9521 8.88974 16.8404C8.42916 15.7286 8.30863 14.5052 8.54338 13.3249C8.77812 12.1446 9.35761 11.0604 10.2086 10.2094C11.0595 9.3585 12.1437 8.77901 13.324 8.54426C14.5043 8.30951 15.7277 8.43005 16.8395 8.89063C17.9513 9.3512 18.9015 10.1311 19.57 11.1318C20.2385 12.1324 20.5953 13.3089 20.5952 14.5123C20.5933 16.1252 19.9517 17.6715 18.8112 18.8121C17.6707 19.9526 16.1243 20.5942 14.5114 20.5961Z" fill="black"/>
</svg>
