<svg xmlns="http://www.w3.org/2000/svg" data-name="Layer 1" viewBox="0 0 128 128" id="pet-medicine"><path d="M34,65A29,29,0,1,0,63,94,29.03276,29.03276,0,0,0,34,65Zm0,2a26.894,26.894,0,0,1,18.30481,7.17517L14.17517,112.30481A26.98215,26.98215,0,0,1,34,67Zm0,54a26.89456,26.89456,0,0,1-18.41327-7.27863L53.72137,75.58673A26.98018,26.98018,0,0,1,34,121Z"></path><path d="M44.80029 101.67969l-8.04 8.04a.99989.99989 0 101.41406 1.41406l8.04-8.04a.99989.99989 0 00-1.41406-1.41406zM19.98486 88.90918a.99676.99676 0 00.707-.293l9.23682-9.23682a.99989.99989 0 00-1.41406-1.41406l-9.23682 9.23682a1 1 0 00.707 1.707zM107.65918 5.5498A18.02117 18.02117 0 0087.208 20.7085L75.15332 101.81738a18.00045 18.00045 0 0015.15723 20.45068 18.26462 18.26462 0 002.68457.19922 18.00861 18.00861 0 0017.7666-15.35742L122.81738 26.001A18.02192 18.02192 0 00107.65918 5.5498zm1.124 101.26611a15.99955 15.99955 0 11-31.65137-4.70459l5.2923-35.60876 31.65179 4.70453zm5.58685-37.5874L82.7182 64.524l.882-5.93457 31.65192 4.70441zM120.83887 25.707L115.5462 61.31525 83.89429 56.61084l5.29224-35.6084A16 16 0 11120.83887 25.707z"></path><path d="M95.54688 114.748a.99621.99621 0 00.458-.11133 18.05992 18.05992 0 009.55761-13.35449l.80568-5.42334a1.00012 1.00012 0 00-1.97852-.29395l-.80566 5.42334a16.05257 16.05257 0 01-8.49707 11.87109 1.00006 1.00006 0 00.46 1.88867zM42 16a6 6 0 10-6-6A6.00656 6.00656 0 0042 16zM42 6a4 4 0 11-4 4A4.00458 4.00458 0 0142 6zM12 46a6 6 0 10-6-6A6.00656 6.00656 0 0012 46zm0-10a4 4 0 11-4 4A4.00458 4.00458 0 0112 36zM78 40a6 6 0 10-6 6A6.00656 6.00656 0 0078 40zm-6 4a4 4 0 114-4A4.00427 4.00427 0 0172 44zM20.63867 46.71338a21.33386 21.33386 0 00.24072 3.19775 8.81822 8.81822 0 004.56885 6.4834 9.24515 9.24515 0 004.40527 1.11816 9.49876 9.49876 0 003.96387-.876 19.17918 19.17918 0 0115.91846-.002 9.28983 9.28983 0 008.37109-.25391 8.88843 8.88843 0 004.58691-6.57812A21.54621 21.54621 0 0062.686 43.541a21.29771 21.29771 0 00-18.50635-17.835 21.14844 21.14844 0 00-23.541 21.00732zm8.377-14.26172a18.91671 18.91671 0 0112.73584-4.87988 20.065 20.065 0 012.2085.12256A19.2718 19.2718 0 0160.70752 43.83105a19.56587 19.56587 0 01.00781 5.68066 6.909 6.909 0 01-3.563 5.11182 7.30348 7.30348 0 01-6.5835.19287 21.18119 21.18119 0 00-17.585.002 7.32849 7.32849 0 01-6.58594-.18408 6.83293 6.83293 0 01-3.541-5.02393 19.1649 19.1649 0 016.15869-17.15869zM21 26a6 6 0 10-6-6A6.00656 6.00656 0 0021 26zm0-10a4 4 0 11-4 4A4.00458 4.00458 0 0121 16zM70 20a6 6 0 10-6 6A6.00656 6.00656 0 0070 20zm-6 4a4 4 0 114-4A4.00458 4.00458 0 0164 24z"></path></svg>
