<svg width="19" height="19" viewBox="0 0 19 19" fill="none" xmlns="http://www.w3.org/2000/svg">
<g id="ion:search-sharp">
<path id="Vector" d="M15.3613 14.62L11.7023 10.9604C12.2919 10.15 12.6091 9.17344 12.6082 8.17127C12.6082 5.5482 10.474 3.41406 7.85096 3.41406C5.22789 3.41406 3.09375 5.5482 3.09375 8.17127C3.09375 10.7943 5.22789 12.9285 7.85096 12.9285C8.85312 12.9294 9.82973 12.6122 10.6401 12.0226L14.2997 15.6816L15.3613 14.62ZM7.85096 11.426C7.20715 11.4261 6.57778 11.2352 6.04245 10.8776C5.50712 10.5199 5.08987 10.0115 4.84347 9.41676C4.59707 8.82197 4.53258 8.16746 4.65817 7.53602C4.78375 6.90458 5.09377 6.32457 5.54901 5.86933C6.00425 5.41408 6.58427 5.10407 7.21571 4.97848C7.84715 4.85289 8.50165 4.91738 9.09644 5.16378C9.69123 5.41018 10.1996 5.82743 10.5572 6.36276C10.9149 6.8981 11.1057 7.52746 11.1057 8.17127C11.1047 9.03417 10.7614 9.86143 10.1513 10.4716C9.54112 11.0818 8.71385 11.425 7.85096 11.426Z" fill="black"/>
</g>
</svg>
